<?xml version="1.0" encoding="UTF-8"?>
<svg version="1.1" xmlns="http://www.w3.org/2000/svg" width="411" height="231">
<path d="M0 0 C135.63 0 271.26 0 411 0 C411 76.23 411 152.46 411 231 C275.37 231 139.74 231 0 231 C0 154.77 0 78.54 0 0 Z " fill="#FDFDFD" transform="translate(0,0)"/>
<path d="M0 0 C72.93 0 145.86 0 221 0 C221 4.29 221 8.58 221 13 C148.07 13 75.14 13 0 13 C0 8.71 0 4.42 0 0 Z " fill="#030303" transform="translate(188,80)"/>
<path d="M0 0 C61.05 0 122.1 0 185 0 C185 4.29 185 8.58 185 13 C123.95 13 62.9 13 0 13 C0 8.71 0 4.42 0 0 Z " fill="#8D54FF" transform="translate(3,136)"/>
<path d="M0 0 C0.99 0 1.98 0 3 0 C3 1.98 3 3.96 3 6 C4.423125 5.938125 4.423125 5.938125 5.875 5.875 C9 6 9 6 11 8 C11.33 5.69 11.66 3.38 12 1 C12.99 1 13.98 1 15 1 C15 2.65 15 4.3 15 6 C16.3921875 5.9071875 16.3921875 5.9071875 17.8125 5.8125 C21 6 21 6 22.9375 7.0625 C24.68741799 10.25352692 23.91362414 12.58913653 23 16 C20.72188243 18.28859168 19.4368377 18.95424186 16.203125 19.29296875 C15.22859375 19.25816406 14.2540625 19.22335938 13.25 19.1875 C12.26515625 19.16042969 11.2803125 19.13335937 10.265625 19.10546875 C9.51796875 19.07066406 8.7703125 19.03585938 8 19 C7.71125 18.030625 7.4225 17.06125 7.125 16.0625 C6.35785318 12.89335797 6.35785318 12.89335797 4 12 C4 13.98 4 15.96 4 18 C0.77211225 18.36653013 -2.45740362 18.71601907 -5.6875 19.0625 C-6.59951172 19.16626953 -7.51152344 19.27003906 -8.45117188 19.37695312 C-9.33740234 19.47041016 -10.22363281 19.56386719 -11.13671875 19.66015625 C-11.94842529 19.74918213 -12.76013184 19.83820801 -13.59643555 19.92993164 C-17.01430396 20.02956884 -19.92499727 19.70431213 -22.8125 17.8125 C-24.59006563 15.09937351 -24.38851935 13.17290804 -24 10 C-22.76831055 7.83300781 -22.76831055 7.83300781 -21 6 C-18.82348633 5.54589844 -18.82348633 5.54589844 -16.33203125 5.609375 C-15.43935547 5.62226562 -14.54667969 5.63515625 -13.62695312 5.6484375 C-12.69818359 5.68195313 -11.76941406 5.71546875 -10.8125 5.75 C-9.87212891 5.76804687 -8.93175781 5.78609375 -7.96289062 5.8046875 C-5.64090111 5.8518345 -3.3209631 5.91761769 -1 6 C-1.020625 5.195625 -1.04125 4.39125 -1.0625 3.5625 C-1 1 -1 1 0 0 Z " fill="#CACACA" transform="translate(43,75)"/>
<path d="M0 0 C1.21236328 0.01353516 1.21236328 0.01353516 2.44921875 0.02734375 C3.37154297 0.04474609 3.37154297 0.04474609 4.3125 0.0625 C4.3125 0.7225 4.3125 1.3825 4.3125 2.0625 C5.09625 2.330625 5.88 2.59875 6.6875 2.875 C9.3125 4.0625 9.3125 4.0625 11.3125 7.0625 C11.90548783 11.60617302 11.86374808 15.767067 10.0625 20 C7.56184634 22.94719896 5.59457117 24.81267042 1.7265625 25.56640625 C-5.61942272 25.72073367 -5.61942272 25.72073367 -8.703125 23.8203125 C-12.38584573 20.22697819 -13.53770245 17.34647896 -14.125 12.3125 C-14.0919322 7.84007967 -12.24502835 5.61004307 -9.29296875 2.41015625 C-6.38450788 -0.03125251 -3.62787248 -0.05257786 0 0 Z " fill="#9763FF" transform="translate(232.6875,103.9375)"/>
<path d="M0 0 C13.4560092 -0.84100058 13.4560092 -0.84100058 19.609375 4.39453125 C22.26841313 7.46437584 22.39515265 10.98868552 22.3515625 14.93359375 C21.71315462 18.68601338 19.72210538 20.40162668 17 23 C13.46875529 25.33314383 10.41365838 25.20827317 6.25 25.125 C3.15625 25.063125 3.15625 25.063125 0 25 C0 16.75 0 8.5 0 0 Z " fill="#1E1E1E" transform="translate(135,104)"/>
<path d="M0 0 C1.65 0 3.3 0 5 0 C6.94921875 2.40625 6.94921875 2.40625 8.6875 5.5 C9.74653501 7.3597688 10.84062532 9.20107102 12 11 C12.66 11 13.32 11 14 11 C15.79935437 8.46186789 17.41526607 5.83372681 19.05078125 3.1875 C20.01564453 2.1046875 20.01564453 2.1046875 21 1 C22.65 1 24.3 1 26 1 C26 8.59 26 16.18 26 24 C24.35 24 22.7 24 21 24 C20.67 20.04 20.34 16.08 20 12 C19.46375 12.99 18.9275 13.98 18.375 15 C16 18 16 18 12.9375 18.6875 C11.968125 18.460625 10.99875 18.23375 10 18 C9.01 16.35 8.02 14.7 7 13 C6.67 16.96 6.34 20.92 6 25 C4.02 25 2.04 25 0 25 C0 16.75 0 8.5 0 0 Z " fill="#151515" transform="translate(68,104)"/>
<path d="M0 0 C1.98 0 3.96 0 6 0 C6 8.25 6 16.5 6 25 C4.35 25 2.7 25 1 25 C-0.86451757 23.00801938 -2.30292791 21.23044928 -3.8125 19 C-4.21919922 18.42765625 -4.62589844 17.8553125 -5.04492188 17.265625 C-6.04474232 15.85411379 -7.02438622 14.42834959 -8 13 C-8.33 16.96 -8.66 20.92 -9 25 C-10.98 25 -12.96 25 -15 25 C-15 17.08 -15 9.16 -15 1 C-10 1 -10 1 -7.796875 3.1171875 C-7.12140625 4.02726562 -6.4459375 4.93734375 -5.75 5.875 C-5.06421875 6.77992187 -4.3784375 7.68484375 -3.671875 8.6171875 C-2 11 -2 11 -1 13 C-0.67 8.71 -0.34 4.42 0 0 Z " fill="#9966FF" transform="translate(271,104)"/>
<path d="M0 0 C13.19405906 -0.49323585 13.19405906 -0.49323585 16.9296875 1.79296875 C19 4 19 4 19.4375 7.5625 C19 11 19 11 17 14 C16.34 14 15.68 14 15 14 C15.28875 14.55429688 15.5775 15.10859375 15.875 15.6796875 C16.431875 16.76636719 16.431875 16.76636719 17 17.875 C17.37125 18.59429687 17.7425 19.31359375 18.125 20.0546875 C19 22 19 22 19 24 C16.69 24 14.38 24 12 24 C11.5875 22.865625 11.175 21.73125 10.75 20.5625 C9.43314602 16.90456616 9.43314602 16.90456616 6.8125 16.0625 C6.214375 16.041875 5.61625 16.02125 5 16 C5 18.31 5 20.62 5 23 C3.35 23 1.7 23 0 23 C0 15.41 0 7.82 0 0 Z " fill="#101010" transform="translate(9,105)"/>
<path d="M0 0 C1.32 0 2.64 0 4 0 C4 5.94 4 11.88 4 18 C-5.11201629 20.27800407 -5.11201629 20.27800407 -9.875 19.8125 C-10.80054688 19.73644531 -11.72609375 19.66039063 -12.6796875 19.58203125 C-15 19 -15 19 -17 16 C-17.07905064 13.66800612 -17.08798769 11.33167378 -17 9 C-17.99 9.495 -17.99 9.495 -19 10 C-19.40729228 12.32156597 -19.74438677 14.6568787 -20 17 C-21.32 16.67 -22.64 16.34 -24 16 C-24 12.37 -24 8.74 -24 5 C-22.576875 4.938125 -21.15375 4.87625 -19.6875 4.8125 C-18.48673828 4.76029297 -18.48673828 4.76029297 -17.26171875 4.70703125 C-14.52148416 5.06198392 -13.70828921 5.89366282 -12 8 C-11.34 7.01 -10.68 6.02 -10 5 C-8.125 4.671875 -8.125 4.671875 -6 4.75 C-5.29875 4.76546875 -4.5975 4.7809375 -3.875 4.796875 C-2 5 -2 5 0 6 C0 4.02 0 2.04 0 0 Z " fill="#E2E2E2" transform="translate(174,76)"/>
<path d="M0 0 C2.77872266 1.60351101 5.09592515 3.40569802 7 6 C7 7.32 7 8.64 7 10 C4.125 10.1875 4.125 10.1875 1 10 C0.34 9.01 -0.32 8.02 -1 7 C-4.5 6.58333333 -4.5 6.58333333 -8 7 C-10.37198957 8.93602047 -10.37198957 8.93602047 -10.25 12.4375 C-10.28809647 16.10420618 -10.28809647 16.10420618 -8 19 C-4.5 19.5 -4.5 19.5 -1 19 C-0.34 18.01 0.32 17.02 1 16 C4.125 15.8125 4.125 15.8125 7 16 C6.49396008 18.16874252 6.00016187 19.99967627 5 22 C4.34 22 3.68 22 3 22 C3 22.66 3 23.32 3 24 C-0.95860317 25.97930159 -5.69569237 25.5598088 -10 25 C-13.0625 22.75 -13.0625 22.75 -15 20 C-15.433125 19.401875 -15.86625 18.80375 -16.3125 18.1875 C-17.40648168 14.70664921 -17.77204793 11.55010072 -17 8 C-13.00436922 1.42044395 -7.8639646 -1.53548214 0 0 Z " fill="#9966FF" transform="translate(366,104)"/>
<path d="M0 0 C1.98 0 3.96 0 6 0 C6 3.3 6 6.6 6 10 C8.42919865 10.13440778 8.42919865 10.13440778 11 9 C12.38293093 6.44481903 13.21791649 3.79133871 14 1 C15.98 1 17.96 1 20 1 C19.79503906 1.60328125 19.59007812 2.2065625 19.37890625 2.828125 C19.10949219 3.62734375 18.84007812 4.4265625 18.5625 5.25 C18.29566406 6.03890625 18.02882812 6.8278125 17.75390625 7.640625 C17.50511719 8.41921875 17.25632813 9.1978125 17 10 C16.7525 10.66257812 16.505 11.32515625 16.25 12.0078125 C15.89278412 14.85437658 16.95155877 16.21688929 18.4375 18.625 C21 22.82833787 21 22.82833787 21 25 C18.69 25 16.38 25 14 25 C13.525625 23.88625 13.05125 22.7725 12.5625 21.625 C11.74693537 19.73289006 10.92143645 17.84287291 10 16 C8.68 15.67 7.36 15.34 6 15 C6 18.3 6 21.6 6 25 C4.02 25 2.04 25 0 25 C0 16.75 0 8.5 0 0 Z " fill="#9966FF" transform="translate(188,104)"/>
<path d="M0 0 C1.65 0 3.3 0 5 0 C6.87014121 2.16448775 8.31512026 4.10319582 9.8125 6.5 C10.21919922 7.12003906 10.62589844 7.74007812 11.04492188 8.37890625 C12.04550555 9.90921069 13.02485338 11.45336222 14 13 C14.33 8.71 14.66 4.42 15 0 C16.65 0 18.3 0 20 0 C20 7.59 20 15.18 20 23 C18.35 23 16.7 23 15 23 C13.13548243 21.00801938 11.69707209 19.23044928 10.1875 17 C9.78080078 16.42765625 9.37410156 15.8553125 8.95507812 15.265625 C7.95525768 13.85411379 6.97561378 12.42834959 6 11 C5.67 14.96 5.34 18.92 5 23 C3.35 23 1.7 23 0 23 C0 15.41 0 7.82 0 0 Z " fill="#915AFF" transform="translate(290,105)"/>
<path d="M0 0 C5.28 0 10.56 0 16 0 C16 1.65 16 3.3 16 5 C12.7 5 9.4 5 6 5 C6 6.65 6 8.3 6 10 C8.97 10 11.94 10 15 10 C15 11.65 15 13.3 15 15 C12.03 15 9.06 15 6 15 C6 16.65 6 18.3 6 20 C9.3 20 12.6 20 16 20 C16 21.65 16 23.3 16 25 C10.72 25 5.44 25 0 25 C0 16.75 0 8.5 0 0 Z " fill="#212121" transform="translate(107,104)"/>
<path d="M0 0 C5.28 0 10.56 0 16 0 C16 1.65 16 3.3 16 5 C12.7 5 9.4 5 6 5 C6 6.65 6 8.3 6 10 C8.97 10 11.94 10 15 10 C15 11.65 15 13.3 15 15 C12.03 15 9.06 15 6 15 C6 16.65 6 18.3 6 20 C9.3 20 12.6 20 16 20 C16 21.65 16 23.3 16 25 C10.72 25 5.44 25 0 25 C0 16.75 0 8.5 0 0 Z " fill="#212121" transform="translate(40,104)"/>
<path d="M0 0 C0.99 0 1.98 0 3 0 C3 1.98 3 3.96 3 6 C3.94875 5.95875 4.8975 5.9175 5.875 5.875 C9 6 9 6 11 8 C11.33 5.69 11.66 3.38 12 1 C12.99 1 13.98 1 15 1 C15 2.65 15 4.3 15 6 C15.928125 5.938125 16.85625 5.87625 17.8125 5.8125 C21 6 21 6 22.9375 7.0625 C24.68741799 10.25352692 23.91362414 12.58913653 23 16 C20.72188243 18.28859168 19.4368377 18.95424186 16.203125 19.29296875 C15.22859375 19.25816406 14.2540625 19.22335938 13.25 19.1875 C11.77273437 19.14689453 11.77273437 19.14689453 10.265625 19.10546875 C9.51796875 19.07066406 8.7703125 19.03585938 8 19 C6.39274365 15.78548731 6.94251815 12.56387464 7 9 C3.68539295 10.70892499 3.68539295 10.70892499 3.3125 14.125 C3.209375 15.07375 3.10625 16.0225 3 17 C2.01 17 1.02 17 0 17 C0 11.39 0 5.78 0 0 Z " fill="#6E6E6E" transform="translate(43,75)"/>
<path d="M0 0 C4.95 0 9.9 0 15 0 C15 1.32 15 2.64 15 4 C11.7 4 8.4 4 5 4 C5 5.65 5 7.3 5 9 C7.97 9 10.94 9 14 9 C14 10.32 14 11.64 14 13 C11.03 13 8.06 13 5 13 C5 14.98 5 16.96 5 19 C8.63 19 12.26 19 16 19 C16 20.65 16 22.3 16 24 C10.72 24 5.44 24 0 24 C0 16.08 0 8.16 0 0 Z " fill="#945EFF" transform="translate(323,105)"/>
<path d="M0 0 C6.93 0 13.86 0 21 0 C21 1.98 21 3.96 21 6 C18.69 6 16.38 6 14 6 C14 12.27 14 18.54 14 25 C12.02 25 10.04 25 8 25 C8 18.73 8 12.46 8 6 C5.36 6 2.72 6 0 6 C0 4.02 0 2.04 0 0 Z " fill="#9E6DFF" transform="translate(383,104)"/>
<path d="M0 0 C1.32161133 0.12181641 1.32161133 0.12181641 2.66992188 0.24609375 C3.56259766 0.31183594 4.45527344 0.37757812 5.375 0.4453125 C7.57961172 0.61036365 9.7808909 0.79460092 11.98242188 0.99609375 C11.98242188 2.31609375 11.98242188 3.63609375 11.98242188 4.99609375 C9.01242188 4.50109375 9.01242188 4.50109375 5.98242188 3.99609375 C6.00304687 5.29546875 6.02367188 6.59484375 6.04492188 7.93359375 C6.06641642 9.28775008 6.05390386 10.64365458 5.98242188 11.99609375 C3.90981196 14.06870367 0.29536332 13.80300296 -2.49414062 14.05078125 C-5.01757812 13.99609375 -5.01757812 13.99609375 -8.14257812 12.43359375 C-10.01757812 9.99609375 -10.01757812 9.99609375 -10.51757812 6.99609375 C-9.35565995 0.02458468 -6.44517486 -0.44111463 0 0 Z " fill="#BFBFBF" transform="translate(90.017578125,81.00390625)"/>
<path d="M0 0 C5.181775 1.036355 9.04260377 2.1688874 12.9375 5.8125 C14.46378182 8.95484492 14.02986719 10.704425 13 14 C11.375 16.375 11.375 16.375 9 18 C3.02941176 18.51470588 3.02941176 18.51470588 0 17 C0 11.39 0 5.78 0 0 Z " fill="#6D6D6D" transform="translate(4,76)"/>
<path d="M0 0 C2.5 1.5625 2.5 1.5625 4 4 C3.93913078 7.46954545 3.6274029 9.91947278 1.875 12.9375 C-1.17468171 14.66565297 -3.58518389 14.42685201 -7 14 C-8.9375 12.4375 -8.9375 12.4375 -10 10 C-10.61818182 4.12727273 -10.61818182 4.12727273 -8.9375 1.0625 C-5.8347167 -0.63902633 -3.46230815 -0.42519574 0 0 Z " fill="#F8F5FF" transform="translate(235,110)"/>
<path d="M0 0 C0.99 0 1.98 0 3 0 C3 5.94 3 11.88 3 18 C1.39125 18.061875 -0.2175 18.12375 -1.875 18.1875 C-2.77992187 18.22230469 -3.68484375 18.25710937 -4.6171875 18.29296875 C-5.79667969 18.14794922 -5.79667969 18.14794922 -7 18 C-9 15 -9 15 -8.75 11.4375 C-8 8 -8 8 -6 6 C-2.875 5.875 -2.875 5.875 0 6 C0 4.02 0 2.04 0 0 Z " fill="#7B7B7B" transform="translate(112,75)"/>
<path d="M0 0 C3.625 0.25 3.625 0.25 5.625 1.4375 C6.625 3.25 6.625 3.25 6.5625 5.75 C5.43792948 8.74885473 4.39741394 9.70070985 1.625 11.25 C0.635 11.25 -0.355 11.25 -1.375 11.25 C-1.375 13.23 -1.375 15.21 -1.375 17.25 C-2.365 17.25 -3.355 17.25 -4.375 17.25 C-4.40184679 14.60409986 -4.42176357 11.95846904 -4.4375 9.3125 C-4.44587891 8.55775391 -4.45425781 7.80300781 -4.46289062 7.02539062 C-4.47152441 5.10005687 -4.42724333 3.17464419 -4.375 1.25 C-3.375 0.25 -3.375 0.25 0 0 Z " fill="#686868" transform="translate(130.375,75.75)"/>
<path d="M0 0 C1.65 0 3.3 0 5 0 C5 7.92 5 15.84 5 24 C3.35 24 1.7 24 0 24 C0 16.08 0 8.16 0 0 Z " fill="#0B0B0B" transform="translate(169,105)"/>
<path d="M0 0 C0.33 0 0.66 0 1 0 C1 5.61 1 11.22 1 17 C7.3008541 17.68507487 7.3008541 17.68507487 12.625 14.9375 C14.3763585 11.19596138 13.93186304 8.96041793 13 5 C13.66 5 14.32 5 15 5 C15 5.66 15 6.32 15 7 C15.99 7.33 16.98 7.66 18 8 C17.67 8.33 17.34 8.66 17 9 C16.57113077 13.08034043 16.57113077 13.08034043 18.18286133 16.69067383 C20.69000566 18.4971786 22.26429889 18.26018073 25.32421875 18.07421875 C26.35224609 18.01943359 27.38027344 17.96464844 28.43945312 17.90820312 C29.51130859 17.83537109 30.58316406 17.76253906 31.6875 17.6875 C32.77095703 17.62626953 33.85441406 17.56503906 34.97070312 17.50195312 C37.64828378 17.3486115 40.32415282 17.18075343 43 17 C42.67 17.66 42.34 18.32 42 19 C34.59120819 20.3132641 26.50753643 20.47890476 19 20 C18.67 19.67 18.34 19.34 18 19 C16.989375 19.144375 15.97875 19.28875 14.9375 19.4375 C4.41176471 20.94117647 4.41176471 20.94117647 0 18 C-0.34057617 16.12060547 -0.34057617 16.12060547 -0.29296875 13.8671875 C-0.28330078 13.06152344 -0.27363281 12.25585938 -0.26367188 11.42578125 C-0.23853516 10.58402344 -0.21339844 9.74226563 -0.1875 8.875 C-0.17396484 8.02550781 -0.16042969 7.17601563 -0.14648438 6.30078125 C-0.11108219 4.20025163 -0.05727401 2.10004707 0 0 Z " fill="#E6E6E6" transform="translate(3,76)"/>
<path d="M0 0 C1.27875 -0.061875 2.5575 -0.12375 3.875 -0.1875 C4.95394531 -0.23970703 4.95394531 -0.23970703 6.0546875 -0.29296875 C6.69664062 -0.19628906 7.33859375 -0.09960938 8 0 C10.44576827 3.66865241 10.23607254 5.67200343 10 10 C9.67 10.66 9.34 11.32 9 12 C6.0170339 12.59772099 3.03669195 12.74337815 0 13 C0 8.71 0 4.42 0 0 Z " fill="#F7F7F7" transform="translate(141,110)"/>
<path d="M0 0 C2.5625 0.375 2.5625 0.375 4.4375 2 C5.95026998 5.19362551 5.51007993 7.02202485 4.5625 10.375 C2.5625 12.375 2.5625 12.375 -0.4375 12.6875 C-1.4275 12.584375 -2.4175 12.48125 -3.4375 12.375 C-5.4375 9.375 -5.4375 9.375 -5.1875 5.8125 C-4.34907693 1.96972758 -3.98114469 0.6124838 0 0 Z " fill="#6B6B6B" transform="translate(73.4375,80.625)"/>
<path d="M0 0 C0.33 3.63 0.66 7.26 1 11 C-5.8359375 11.1953125 -5.8359375 11.1953125 -8 11 C-10 9 -10 9 -10.125 5.375 C-10.08375 4.26125 -10.0425 3.1475 -10 2 C-6.5980513 -0.09350689 -3.94727588 -0.17942163 0 0 Z " fill="#767676" transform="translate(148,82)"/>
<path d="M0 0 C0.99 0 1.98 0 3 0 C3 1.98 3 3.96 3 6 C4.98 6 6.96 6 9 6 C10.29243536 10.1196377 11.26252625 13.66831683 11 18 C9.68 17.67 8.36 17.34 7 17 C7 14.36 7 11.72 7 9 C3.68539295 10.70892499 3.68539295 10.70892499 3.3125 14.125 C3.209375 15.07375 3.10625 16.0225 3 17 C2.01 17 1.02 17 0 17 C0 11.39 0 5.78 0 0 Z " fill="#646464" transform="translate(43,75)"/>
<path d="M0 0 C0.33 3.63 0.66 7.26 1 11 C-5.8359375 11.1953125 -5.8359375 11.1953125 -8 11 C-10 9 -10 9 -10.1875 6 C-10 3 -10 3 -9 1 C-5.8035914 -0.06546953 -3.34252724 -0.07427838 0 0 Z " fill="#6B6B6B" transform="translate(90,82)"/>
<path d="M0 0 C0.33 3.63 0.66 7.26 1 11 C-5.8359375 11.1953125 -5.8359375 11.1953125 -8 11 C-10 9 -10 9 -10.375 6.0625 C-10 3 -10 3 -8.375 1.125 C-5.43362303 -0.26828383 -3.21666704 -0.21931821 0 0 Z " fill="#6A6A6A" transform="translate(29,82)"/>
<path d="M0 0 C1.485 0.99 1.485 0.99 3 2 C3.125 5 3.125 5 3 8 C3.495 8.99 3.495 8.99 4 10 C-0.73033103 12.06193917 -4.01283099 11.98042414 -8.94921875 11.09375 C-11.31560909 10.782765 -11.31560909 10.782765 -14 13 C-16.58619212 13.0605463 -18.99641069 13.00428908 -21.5625 12.8125 C-22.24763672 12.78091797 -22.93277344 12.74933594 -23.63867188 12.71679688 C-25.62890625 12.58203125 -25.62890625 12.58203125 -29 12 C-31.1519437 8.77208445 -31.20086443 7.71599191 -31 4 C-30.01 4.33 -29.02 4.66 -28 5 C-27.67 6.98 -27.34 8.96 -27 11 C-19.81664652 10.92855186 -19.81664652 10.92855186 -13.375 8.25 C-11.87469782 5.79496007 -11.31647354 3.84826188 -11 1 C-10.34 1.33 -9.68 1.66 -9 2 C-8.59270772 4.32156597 -8.25561323 6.6568787 -8 9 C-5.08365871 9.2502157 -5.08365871 9.2502157 -2 9 C0.29013653 5.5647952 0.17842973 4.014669 0 0 Z " fill="#DDDDDD" transform="translate(78,83)"/>
<path d="M0 0 C6.93359375 -0.09765625 6.93359375 -0.09765625 9 0 C10.73956658 1.73956658 10.37190386 4.1936622 10.5625 6.5625 C10.64628906 7.57441406 10.73007813 8.58632812 10.81640625 9.62890625 C10.87699219 10.41136719 10.93757812 11.19382812 11 12 C9.68 11.67 8.36 11.34 7 11 C7 8.69 7 6.38 7 4 C6.01 4.495 6.01 4.495 5 5 C4.59270772 7.32156597 4.25561323 9.6568787 4 12 C2.68 11.67 1.36 11.34 0 11 C0 7.37 0 3.74 0 0 Z " fill="#797979" transform="translate(150,81)"/>
<path d="M0 0 C1.670625 0.061875 1.670625 0.061875 3.375 0.125 C3.705 1.445 4.035 2.765 4.375 4.125 C3.405625 4.57875 2.43625 5.0325 1.4375 5.5 C-1.69579582 6.78286221 -1.69579582 6.78286221 -2.625 9.125 C0.84 8.63 0.84 8.63 4.375 8.125 C4.045 9.115 3.715 10.105 3.375 11.125 C0 11.25 0 11.25 -3.625 11.125 C-5.625 9.125 -5.625 9.125 -5.875 5.625 C-5.52784563 0.76483889 -4.87441969 0.16808344 0 0 Z " fill="#606060" transform="translate(167.625,81.875)"/>
<path d="M0 0 C0 0.99 0 1.98 0 3 C-0.99 3.33 -1.98 3.66 -3 4 C-2.34 4.4125 -1.68 4.825 -1 5.25 C-0.34 5.8275 0.32 6.405 1 7 C1 8.32 1 9.64 1 11 C-1.95664519 12.4783226 -4.74229737 12.06032783 -8 12 C-8 11.01 -8 10.02 -8 9 C-6.68 8.67 -5.36 8.34 -4 8 C-5.32 7.01 -6.64 6.02 -8 5 C-7.625 3.0625 -7.625 3.0625 -7 1 C-4.53721199 -0.231394 -2.7204945 -0.07159196 0 0 Z " fill="#6B6B6B" transform="translate(40,81)"/>
<path d="M0 0 C4 1 4 1 7 3 C7.3125 6 7.3125 6 7 9 C6.34 9.66 5.68 10.32 5 11 C3.35 11 1.7 11 0 11 C0 7.37 0 3.74 0 0 Z " fill="#CECECE" transform="translate(7,80)"/>
<path d="M0 0 C2.33294775 -0.04241723 4.66702567 -0.04092937 7 0 C8 1 8 1 8.1875 3.4375 C8 6 8 6 6 8 C2.875 8.125 2.875 8.125 0 8 C0 5.36 0 2.72 0 0 Z " fill="#D9D9D9" transform="translate(14,109)"/>
<path d="M0 0 C7.45851528 -0.36681223 7.45851528 -0.36681223 9.9375 1.3125 C11 3 11 3 12 6 C14.64 6 17.28 6 20 6 C20 6.33 20 6.66 20 7 C17.36 7.66 14.72 8.32 12 9 C11.67 10.98 11.34 12.96 11 15 C10.34 14.01 9.68 13.02 9 12 C5.73539027 13.80412643 4.11070205 14.83394693 2 18 C2 16.02 2 14.04 2 12 C2.969375 11.608125 3.93875 11.21625 4.9375 10.8125 C8.17891214 9.31902901 8.17891214 9.31902901 9 6.4375 C9 5.633125 9 4.82875 9 4 C6.23776722 1.23776722 3.79293383 1.42143709 0 1 C0 0.67 0 0.34 0 0 Z " fill="#C9C9C9" transform="translate(127,75)"/>
<path d="M0 0 C2.97 0 5.94 0 9 0 C9 1.32 9 2.64 9 4 C6.03 3.505 6.03 3.505 3 3 C3 5.64 3 8.28 3 11 C2.01 11 1.02 11 0 11 C0 7.37 0 3.74 0 0 Z " fill="#676767" transform="translate(93,82)"/>
<path d="M0 0 C-0.25 2.375 -0.25 2.375 -1 5 C-3.0625 6.3125 -3.0625 6.3125 -5 7 C-5 6.34 -5 5.68 -5 5 C-5.99 5 -6.98 5 -8 5 C-8 3.02 -8 1.04 -8 -1 C-4.59745511 -2.2151946 -3.06748874 -1.86240388 0 0 Z " fill="#6C6C6C" transform="translate(137,79)"/>
<path d="M0 0 C0.99 0 1.98 0 3 0 C3 5.61 3 11.22 3 17 C2.01 17 1.02 17 0 17 C0 11.39 0 5.78 0 0 Z " fill="#626262" transform="translate(175,76)"/>
<path d="M0 0 C0 3.3 0 6.6 0 10 C-1.98 10 -3.96 10 -6 10 C-5.01 9.67 -4.02 9.34 -3 9 C-3 6.69 -3 4.38 -3 2 C-3.99 2.33 -4.98 2.66 -6 3 C-7.21869929 5.50447516 -7.21869929 5.50447516 -8 8 C-8.33 8 -8.66 8 -9 8 C-8.74438677 5.6568787 -8.40729228 3.32156597 -8 1 C-5.29120665 -0.35439668 -2.99066732 -0.06501451 0 0 Z " fill="#5D5D5D" transform="translate(148,82)"/>
<path d="M0 0 C0.66 0 1.32 0 2 0 C2 5.28 2 10.56 2 16 C0.02 16 -1.96 16 -4 16 C-3.34 15.34 -2.68 14.68 -2 14 C-1.59952556 11.67724823 -1.2602896 9.34260643 -1 7 C-2.32 6.67 -3.64 6.34 -5 6 C-3.35 6 -1.7 6 0 6 C0 4.02 0 2.04 0 0 Z " fill="#616161" transform="translate(112,76)"/>
<path d="M0 0 C0.33 0 0.66 0 1 0 C1 5.94 1 11.88 1 18 C-3.54877674 20.27438837 -5.16197544 20.07511657 -10 19 C-10.66 18.34 -11.32 17.68 -12 17 C-11.505 15.515 -11.505 15.515 -11 14 C-10.67 14.99 -10.34 15.98 -10 17 C-6.7 17 -3.4 17 0 17 C0 11.39 0 5.78 0 0 Z " fill="#DCDCDC" transform="translate(115,76)"/>
<path d="M0 0 C0.66 0 1.32 0 2 0 C2.04898438 0.62648438 2.09796875 1.25296875 2.1484375 1.8984375 C2.22320312 2.71570313 2.29796875 3.53296875 2.375 4.375 C2.44460937 5.18710938 2.51421875 5.99921875 2.5859375 6.8359375 C2.82892588 9.20334191 2.82892588 9.20334191 5 11 C1.85069107 12.04976964 -0.38814456 12.10131595 -3.6875 12.0625 C-4.68136719 12.05347656 -5.67523438 12.04445313 -6.69921875 12.03515625 C-7.83810547 12.01775391 -7.83810547 12.01775391 -9 12 C-9.33 10.68 -9.66 9.36 -10 8 C-9.01 8.495 -9.01 8.495 -8 9 C-6.46331135 9.22467831 -4.92031946 9.40796805 -3.375 9.5625 C-2.55773437 9.64628906 -1.74046875 9.73007813 -0.8984375 9.81640625 C-0.27195313 9.87699219 0.35453125 9.93757813 1 10 C0.67 9.01 0.34 8.02 0 7 C-0.03954234 4.66700175 -0.04401732 2.33291811 0 0 Z " fill="#D0D0D0" transform="translate(148,83)"/>
<path d="M0 0 C7.75 -0.125 7.75 -0.125 10 1 C10.09978121 4.49234244 9.77842938 7.59437148 9 11 C8.67 10.34 8.34 9.68 8 9 C5.69 9.33 3.38 9.66 1 10 C1.33 9.01 1.66 8.02 2 7 C4.5625 5.8125 4.5625 5.8125 7 5 C7 4.01 7 3.02 7 2 C4.69 1.67 2.38 1.34 0 1 C0 0.67 0 0.34 0 0 Z " fill="#B7B7B7" transform="translate(164,81)"/>
<path d="M0 0 C0.66 0 1.32 0 2 0 C2 1.98 2 3.96 2 6 C3.65 6 5.3 6 7 6 C6.34 6.391875 5.68 6.78375 5 7.1875 C2.70833333 8.85416667 2.70833333 8.85416667 2.75 11.6875 C2.8325 12.450625 2.915 13.21375 3 14 C4.32 14.66 5.64 15.32 7 16 C4.69 16 2.38 16 0 16 C0 10.72 0 5.44 0 0 Z " fill="#595959" transform="translate(56,76)"/>
<path d="M0 0 C1.98 0 3.96 0 6 0 C7.29243536 4.1196377 8.26252625 7.66831683 8 12 C6.68 11.67 5.36 11.34 4 11 C4 8.03 4 5.06 4 2 C2.68 1.34 1.36 0.68 0 0 Z " fill="#797979" transform="translate(46,81)"/>
<path d="M0 0 C0.33 0 0.66 0 1 0 C1 5.61 1 11.22 1 17 C2.98 17 4.96 17 7 17 C7 17.33 7 17.66 7 18 C3.37 18 -0.26 18 -4 18 C-3.01 17.67 -2.02 17.34 -1 17 C-1.33 13.7 -1.66 10.4 -2 7 C-1.67 7 -1.34 7 -1 7 C-0.67 4.69 -0.34 2.38 0 0 Z " fill="#B4B4B4" transform="translate(55,76)"/>
<path d="M0 0 C3.3 0 6.6 0 10 0 C10.95904856 3.83619425 10.91892116 5.32431536 10 9 C8.02 8.34 6.04 7.68 4 7 C4 8.65 4 10.3 4 12 C3.67 12 3.34 12 3 12 C3 9.36 3 6.72 3 4 C5.97 4.495 5.97 4.495 9 5 C9 3.68 9 2.36 9 1 C6.03 1 3.06 1 0 1 C0 0.67 0 0.34 0 0 Z " fill="#C8C8C8" transform="translate(93,81)"/>
<path d="M0 0 C2.475 0.495 2.475 0.495 5 1 C5.33 4.63 5.66 8.26 6 12 C5.01 12 4.02 12 3 12 C3 9.03 3 6.06 3 3 C2.01 3 1.02 3 0 3 C0 2.01 0 1.02 0 0 Z " fill="#656565" transform="translate(155,81)"/>
<path d="M0 0 C0.33 0 0.66 0 1 0 C1.33 3.3 1.66 6.6 2 10 C-0.97 10 -3.94 10 -7 10 C-7 9.34 -7 8.68 -7 8 C-5.35 7.67 -3.7 7.34 -2 7 C-1.34 4.69 -0.68 2.38 0 0 Z " fill="#606060" transform="translate(89,83)"/>
<path d="M0 0 C0.33 0 0.66 0 1 0 C1.33 3.3 1.66 6.6 2 10 C-0.97 10 -3.94 10 -7 10 C-7 9.34 -7 8.68 -7 8 C-5.35 7.67 -3.7 7.34 -2 7 C-1.34 4.69 -0.68 2.38 0 0 Z " fill="#606060" transform="translate(28,83)"/>
<path d="M0 0 C1.32 0 2.64 0 4 0 C4 0.66 4 1.32 4 2 C3.34 2 2.68 2 2 2 C2.33 6.29 2.66 10.58 3 15 C2.01 15 1.02 15 0 15 C0 10.05 0 5.1 0 0 Z " fill="#575757" transform="translate(5,77)"/>
<path d="M0 0 C0.99 0.66 1.98 1.32 3 2 C3.125 5 3.125 5 3 8 C3.33 8.66 3.66 9.32 4 10 C0.17679443 11.42258812 -2.91281305 12.24042276 -7 12 C-7 11.34 -7 10.68 -7 10 C-5.02 9.34 -3.04 8.68 -1 8 C-0.26665571 4.02245872 -0.26665571 4.02245872 0 0 Z " fill="#CDCDCD" transform="translate(78,83)"/>
<path d="M0 0 C0.99 0.33 1.98 0.66 3 1 C3.33 2.98 3.66 4.96 4 7 C10.435 6.505 10.435 6.505 17 6 C16.67 6.66 16.34 7.32 16 8 C13.70890403 8.08075665 11.41700733 8.13907731 9.125 8.1875 C7.84882812 8.22230469 6.57265625 8.25710937 5.2578125 8.29296875 C4.18273438 8.19628906 3.10765625 8.09960938 2 8 C-0.1519437 4.77208445 -0.20086443 3.71599191 0 0 Z " fill="#E6E6E6" transform="translate(47,87)"/>
<path d="M0 0 C1.67542976 0.28604898 3.34385343 0.61781233 5 1 C4.67 2.65 4.34 4.3 4 6 C2.35 6 0.7 6 -1 6 C-1.042721 4.33388095 -1.04063832 2.66617115 -1 1 C-0.67 0.67 -0.34 0.34 0 0 Z " fill="#C8C8C8" transform="translate(59,84)"/>
<path d="M0 0 C1.99097846 2.98646769 2.94124926 5.59687262 4 9 C6.97 9.495 6.97 9.495 10 10 C10 10.33 10 10.66 10 11 C6.04 11 2.08 11 -2 11 C-1.01 10.67 -0.02 10.34 1 10 C0.67 6.7 0.34 3.4 0 0 Z " fill="#BBBBBB" transform="translate(160,83)"/>
<path d="M0 0 C1.32 0 2.64 0 4 0 C4 1.98 4 3.96 4 6 C2.35 5.67 0.7 5.34 -1 5 C-0.67 3.35 -0.34 1.7 0 0 Z " fill="#CDCDCD" transform="translate(107,84)"/>
<path d="M0 0 C2.625 0.375 2.625 0.375 5 1 C4.34 2.32 3.68 3.64 3 5 C2.01 5 1.02 5 0 5 C-0.66 6.32 -1.32 7.64 -2 9 C-2.125 5.625 -2.125 5.625 -2 2 C-1.34 1.34 -0.68 0.68 0 0 Z " fill="#737373" transform="translate(164,82)"/>
<path d="M0 0 C0.66 0 1.32 0 2 0 C2 0.66 2 1.32 2 2 C2.99 2.33 3.98 2.66 5 3 C4.67 3.33 4.34 3.66 4 4 C3.95907063 6.33297433 3.95758277 8.66705225 4 11 C2.02 11.33 0.04 11.66 -2 12 C-1.484375 11.319375 -0.96875 10.63875 -0.4375 9.9375 C1.39207088 6.19881168 0.86178872 3.99556587 0 0 Z " fill="#C5C5C5" transform="translate(16,81)"/>
<path d="M0 0 C5.42857143 -0.36190476 5.42857143 -0.36190476 7.875 1.1875 C9.34781139 3.56036279 9.22223194 5.25913944 9 8 C8.67 7.01 8.34 6.02 8 5 C6.00428677 4.32060826 4.00405227 3.65438441 2 3 C1.34 2.01 0.68 1.02 0 0 Z " fill="#787878" transform="translate(58,81)"/>
<path d="M0 0 C0 0.99 0 1.98 0 3 C-3 5.1875 -3 5.1875 -6 7 C-5.8125 5.1875 -5.8125 5.1875 -5 3 C-2.4375 1.25 -2.4375 1.25 0 0 Z M-10 7 C-8.68 7.33 -7.36 7.66 -6 8 C-7.32 8 -8.64 8 -10 8 C-10 7.67 -10 7.34 -10 7 Z " fill="#EFEFEF" transform="translate(136,86)"/>
<path d="M0 0 C0.99 0 1.98 0 3 0 C3 1.98 3 3.96 3 6 C1.68 6 0.36 6 -1 6 C-1.042721 4.33388095 -1.04063832 2.66617115 -1 1 C-0.67 0.67 -0.34 0.34 0 0 Z " fill="#C6C6C6" transform="translate(142,84)"/>
<path d="M0 0 C1.32 0 2.64 0 4 0 C3.67 1.65 3.34 3.3 3 5 C1.68 5 0.36 5 -1 5 C-0.67 3.35 -0.34 1.7 0 0 Z " fill="#BFBFBF" transform="translate(72,85)"/>
<path d="M0 0 C0.66 0 1.32 0 2 0 C2 1.98 2 3.96 2 6 C0.68 6 -0.64 6 -2 6 C-1.125 1.125 -1.125 1.125 0 0 Z " fill="#CBCBCB" transform="translate(85,84)"/>
<path d="M0 0 C0.99 0 1.98 0 3 0 C3.12375 0.78375 3.2475 1.5675 3.375 2.375 C3.79117993 5.14057822 3.79117993 5.14057822 6 7 C1.125 6.125 1.125 6.125 0 5 C-0.04063832 3.33382885 -0.042721 1.66611905 0 0 Z " fill="#606060" transform="translate(68,85)"/>
<path d="M0 0 C0.66 0 1.32 0 2 0 C2 1.98 2 3.96 2 6 C0.68 6 -0.64 6 -2 6 C-1.125 1.125 -1.125 1.125 0 0 Z " fill="#CBCBCB" transform="translate(24,84)"/>
<path d="M0 0 C0.66 0 1.32 0 2 0 C2.33 2.64 2.66 5.28 3 8 C2.01 8 1.02 8 0 8 C0 5.36 0 2.72 0 0 Z " fill="#686868" transform="translate(51,85)"/>
<path d="M0 0 C1.65 0 3.3 0 5 0 C4.67 1.32 4.34 2.64 4 4 C0.25 5.125 0.25 5.125 -2 4 C-1.34 2.68 -0.68 1.36 0 0 Z " fill="#7E7E7E" transform="translate(71,81)"/>
<path d="M0 0 C2.475 0.495 2.475 0.495 5 1 C4.34 2.32 3.68 3.64 3 5 C2.01 5 1.02 5 0 5 C0 3.35 0 1.7 0 0 Z " fill="#BEBEBE" transform="translate(129,79)"/>
<path d="M0 0 C2 2 2 2 2 6 C0.125 5.6875 0.125 5.6875 -2 5 C-2.66 4.01 -3.32 3.02 -4 2 C-2.68 2 -1.36 2 0 2 C0 1.34 0 0.68 0 0 Z " fill="#BFBFBF" transform="translate(40,82)"/>
<path d="M0 0 C-0.33 0.66 -0.66 1.32 -1 2 C-3.31 2 -5.62 2 -8 2 C-8 1.34 -8 0.68 -8 0 C-5.13822943 -1.43088528 -3.06624227 -0.59991697 0 0 Z " fill="#717171" transform="translate(14,92)"/>
<path d="M0 0 C0.66 0 1.32 0 2 0 C1.67 1.32 1.34 2.64 1 4 C0.34 3.67 -0.32 3.34 -1 3 C-1 4.98 -1 6.96 -1 9 C-2.32 8.67 -3.64 8.34 -5 8 C-4.01 8 -3.02 8 -2 8 C-2.061875 6.576875 -2.061875 6.576875 -2.125 5.125 C-2 2 -2 2 0 0 Z " fill="#B9B9B9" transform="translate(48,84)"/>
<path d="M0 0 C1.32 0.33 2.64 0.66 4 1 C4 2.32 4 3.64 4 5 C2.68 5 1.36 5 0 5 C0 3.35 0 1.7 0 0 Z " fill="#F5F5F5" transform="translate(9,84)"/>
<path d="M0 0 C1.65 0 3.3 0 5 0 C5 0.99 5 1.98 5 3 C3.35 3.66 1.7 4.32 0 5 C0 3.35 0 1.7 0 0 Z " fill="#707070" transform="translate(35,81)"/>
<path d="M0 0 C2 3 2 3 2 7 C0.02 7 -1.96 7 -4 7 C-2.68 6.34 -1.36 5.68 0 5 C0 3.35 0 1.7 0 0 Z " fill="#585858" transform="translate(112,85)"/>
</svg>
