<?xml version="1.0" encoding="UTF-8"?>
<svg version="1.1" xmlns="http://www.w3.org/2000/svg" width="407" height="229">
<path d="M0 0 C134.31 0 268.62 0 407 0 C407 75.57 407 151.14 407 229 C272.69 229 138.38 229 0 229 C0 153.43 0 77.86 0 0 Z " fill="#FEFEFE" transform="translate(0,0)"/>
<path d="M0 0 C72.93 0 145.86 0 221 0 C221 4.62 221 9.24 221 14 C148.07 14 75.14 14 0 14 C0 9.38 0 4.76 0 0 Z " fill="#0C0C0C" transform="translate(186,79)"/>
<path d="M0 0 C61.38 0 122.76 0 186 0 C186 4.62 186 9.24 186 14 C124.62 14 63.24 14 0 14 C0 9.38 0 4.76 0 0 Z " fill="#915AFF" transform="translate(0,135)"/>
<path d="M0 0 C3.17568542 1.65233922 5.37696485 3.75392971 7 7 C7.42558415 11.62413548 7.51719187 15.73287992 5.75 20.0625 C3.83347282 22.18436938 2.81042113 22.70926678 0 23 C0 23.66 0 24.32 0 25 C-9.14033105 26.19006119 -9.14033105 26.19006119 -13.2890625 23.53515625 C-16.57169256 20.12419292 -18.4275816 17.15912305 -18.6875 12.375 C-18.3301841 8.06487696 -16.82469932 5.30893349 -14 2 C-9.5424425 -0.971705 -5.22586818 -0.75294249 0 0 Z " fill="#9662FF" transform="translate(235,104)"/>
<path d="M0 0 C13.125 -0.53571429 13.125 -0.53571429 16.625 1.75 C17.40875 2.4925 18.1925 3.235 19 4 C19.61875 4.556875 20.2375 5.11375 20.875 5.6875 C22.67496411 9.38742622 22.66154741 12.97318969 22 17 C19.94161475 20.33600367 18.2606736 21.8262176 15 24 C12.3886146 24.14269866 9.91622711 24.18772704 7.3125 24.125 C4.899375 24.08375 2.48625 24.0425 0 24 C0 16.08 0 8.16 0 0 Z " fill="#0D0D0D" transform="translate(133,104)"/>
<path d="M0 0 C1.65 0 3.3 0 5 0 C6.86451757 1.99198062 8.30292791 3.76955072 9.8125 6 C10.21919922 6.57234375 10.62589844 7.1446875 11.04492188 7.734375 C12.04474232 9.14588621 13.02438622 10.57165041 14 12 C14.33 8.04 14.66 4.08 15 0 C16.98 0 18.96 0 21 0 C21 7.92 21 15.84 21 24 C19.35 24 17.7 24 16 24 C14.13548243 22.00801938 12.69707209 20.23044928 11.1875 18 C10.78080078 17.42765625 10.37410156 16.8553125 9.95507812 16.265625 C8.95525768 14.85411379 7.97561378 13.42834959 7 12 C6.67 16.29 6.34 20.58 6 25 C4.02 25 2.04 25 0 25 C0 16.75 0 8.5 0 0 Z " fill="#9763FF" transform="translate(287,104)"/>
<path d="M0 0 C1.65 0 3.3 0 5 0 C7.01953125 2.1171875 7.01953125 2.1171875 8.8125 4.875 C9.71935547 6.23238281 9.71935547 6.23238281 10.64453125 7.6171875 C12 10 12 10 12 12 C15.45511563 8.92878611 17.43987247 5.65487765 19.55859375 1.609375 C20.03425781 1.07828125 20.50992188 0.5471875 21 0 C22.65 0 24.3 0 26 0 C26 7.92 26 15.84 26 24 C24.35 24 22.7 24 21 24 C20.505 17.565 20.505 17.565 20 11 C18.35 13.31 16.7 15.62 15 18 C12.75 17.875 12.75 17.875 10 17 C7.6875 13.9375 7.6875 13.9375 6 11 C5.67 15.29 5.34 19.58 5 24 C3.35 24 1.7 24 0 24 C0 16.08 0 8.16 0 0 Z " fill="#080808" transform="translate(66,104)"/>
<path d="M0 0 C1.876875 -0.04125 3.75375 -0.0825 5.6875 -0.125 C6.74324219 -0.14820312 7.79898437 -0.17140625 8.88671875 -0.1953125 C13.17063107 0.07343984 15.95267383 0.95267383 19 4 C19.37195228 7.42196098 19.55456037 9.26798031 17.4375 12.0625 C15.72096097 13.93460138 15.72096097 13.93460138 16.1875 16.5 C16.94141217 18.81972976 17.81693009 20.87047416 19 23 C16.25 23.375 16.25 23.375 13 23 C10.875 20.0625 10.875 20.0625 9 17 C6.87880872 16.04768403 6.87880872 16.04768403 5 16 C5 18.31 5 20.62 5 23 C3.35 23 1.7 23 0 23 C0 15.41 0 7.82 0 0 Z " fill="#090909" transform="translate(7,105)"/>
<path d="M0 0 C3.32797583 1.67064386 5.53084052 3.76007852 6.875 7.3125 C6.91625 7.869375 6.9575 8.42625 7 9 C5.02 9 3.04 9 1 9 C1 8.34 1 7.68 1 7 C-0.8871875 6.938125 -0.8871875 6.938125 -2.8125 6.875 C-3.52019531 6.85179688 -4.22789062 6.82859375 -4.95703125 6.8046875 C-7.31359719 6.86745538 -7.31359719 6.86745538 -10 9 C-10.5 12.5 -10.5 12.5 -10 16 C-6.53076119 18.31282587 -5.07794425 18.42478586 -1 18 C0.02019573 17.0206121 1.02149805 16.02104551 2 15 C4.6875 14.8125 4.6875 14.8125 7 15 C6.79164195 18.64626587 5.99170491 20.00957126 3.5625 22.8125 C-0.5305799 26.0149097 -5.05191304 25.44004726 -10 25 C-10 24.34 -10 23.68 -10 23 C-10.598125 22.7525 -11.19625 22.505 -11.8125 22.25 C-14.51690582 20.70462524 -15.56742238 19.79352635 -17 17 C-17.75847595 12.20241113 -17.46844429 8.88842883 -15.1875 4.5625 C-10.7411114 -0.64612664 -6.50220815 -0.99956305 0 0 Z " fill="#9966FF" transform="translate(364,104)"/>
<path d="M0 0 C1.98 0 3.96 0 6 0 C6 2.97 6 5.94 6 9 C8.42919865 9.13440778 8.42919865 9.13440778 11 8 C12.38293093 5.44481903 13.21791649 2.79133871 14 0 C15.98 0 17.96 0 20 0 C19.60119634 2.47258267 19.13711805 4.70104734 18.08984375 6.984375 C16.47292271 10.67645382 15.6293361 12.86750349 16.91796875 16.8046875 C18.17390723 19.28842018 19.49863751 21.65748328 21 24 C18.3125 24.5 18.3125 24.5 15 24 C13.46602189 22.04647233 12.37865298 20.06984483 11.2734375 17.84765625 C9.97286174 15.52489327 9.97286174 15.52489327 6 15 C6 18.3 6 21.6 6 25 C4.02 25 2.04 25 0 25 C0 16.75 0 8.5 0 0 Z " fill="#9864FF" transform="translate(186,104)"/>
<path d="M0 0 C5 0 5 0 7.203125 2.1171875 C7.87859375 3.02726562 8.5540625 3.93734375 9.25 4.875 C9.93578125 5.77992187 10.6215625 6.68484375 11.328125 7.6171875 C13 10 13 10 14 12 C14.33 8.04 14.66 4.08 15 0 C16.65 0 18.3 0 20 0 C20 7.59 20 15.18 20 23 C18.35 23 16.7 23 15 23 C13.12985879 20.83551225 11.68487974 18.89680418 10.1875 16.5 C9.78080078 15.87996094 9.37410156 15.25992188 8.95507812 14.62109375 C7.95449445 13.09078931 6.97514662 11.54663778 6 10 C5.67 14.29 5.34 18.58 5 23 C3.35 23 1.7 23 0 23 C0 15.41 0 7.82 0 0 Z " fill="#8E55FF" transform="translate(254,105)"/>
<path d="M0 0 C5.28 0 10.56 0 16 0 C16 1.65 16 3.3 16 5 C12.37 5 8.74 5 5 5 C5 6.65 5 8.3 5 10 C8.3 10 11.6 10 15 10 C15 11.32 15 12.64 15 14 C11.7 14 8.4 14 5 14 C5 15.98 5 17.96 5 20 C8.63 20 12.26 20 16 20 C16 21.32 16 22.64 16 24 C10.72 24 5.44 24 0 24 C0 16.08 0 8.16 0 0 Z " fill="#0F0F0F" transform="translate(105,104)"/>
<path d="M0 0 C5.28 0 10.56 0 16 0 C16 1.65 16 3.3 16 5 C12.37 5 8.74 5 5 5 C5 6.65 5 8.3 5 10 C8.3 10 11.6 10 15 10 C15 11.32 15 12.64 15 14 C11.7 14 8.4 14 5 14 C5 15.98 5 17.96 5 20 C8.63 20 12.26 20 16 20 C16 21.32 16 22.64 16 24 C10.72 24 5.44 24 0 24 C0 16.08 0 8.16 0 0 Z " fill="#0F0F0F" transform="translate(38,104)"/>
<path d="M0 0 C4.95 0 9.9 0 15 0 C15 1.32 15 2.64 15 4 C11.7 4 8.4 4 5 4 C5 5.65 5 7.3 5 9 C7.97 9 10.94 9 14 9 C14 10.32 14 11.64 14 13 C11.03 13 8.06 13 5 13 C5 14.98 5 16.96 5 19 C8.63 19 12.26 19 16 19 C16 20.32 16 21.64 16 23 C10.72 23 5.44 23 0 23 C0 15.41 0 7.82 0 0 Z " fill="#8F57FF" transform="translate(321,105)"/>
<path d="M0 0 C6.93 0 13.86 0 21 0 C21 1.65 21 3.3 21 5 C18.36 5 15.72 5 13 5 C13 11.27 13 17.54 13 24 C11.35 24 9.7 24 8 24 C8 18.06 8 12.12 8 6 C5.36 6 2.72 6 0 6 C0 4.02 0 2.04 0 0 Z " fill="#955FFF" transform="translate(381,104)"/>
<path d="M0 0 C0 0.66 0 1.32 0 2 C0.99 2.33 1.98 2.66 3 3 C3.75 6.25 3.75 6.25 4 10 C2.4375 12.4375 2.4375 12.4375 0 14 C-3.34262452 14.48746608 -5.29442492 14.31565201 -8.375 12.9375 C-10 11 -10 11 -10.4375 7.5625 C-9.5458163 0.30164701 -7.06215339 -0.53299271 0 0 Z " fill="#F9F6FF" transform="translate(233,109)"/>
<path d="M0 0 C7 0 7 0 9.4375 1.5625 C11.60396028 4.94217804 11.56288002 7.05983987 11 11 C9.4375 13.4375 9.4375 13.4375 7 15 C4.69 15 2.38 15 0 15 C0 10.05 0 5.1 0 0 Z " fill="#E5E5E5" transform="translate(138,109)"/>
<path d="M0 0 C1.65 0 3.3 0 5 0 C5 7.59 5 15.18 5 23 C3.35 23 1.7 23 0 23 C0 15.41 0 7.82 0 0 Z " fill="#000000" transform="translate(167,105)"/>
<path d="M0 0 C2.33294775 -0.04241723 4.66702567 -0.04092937 7 0 C8 1 8 1 8.125 3.5 C8 6 8 6 7 7 C4.66702567 7.04092937 2.33294775 7.04241723 0 7 C0 4.69 0 2.38 0 0 Z " fill="#ECECEC" transform="translate(12,109)"/>
<path d="M0 0 C0.33 0 0.66 0 1 0 C1 4.62 1 9.24 1 14 C0.67 14 0.34 14 0 14 C-0.33 11.36 -0.66 8.72 -1 6 C-2.98 6.99 -2.98 6.99 -5 8 C-4.19185349 6.66402348 -3.37836819 5.331275 -2.5625 4 C-2.11003906 3.2575 -1.65757813 2.515 -1.19140625 1.75 C-0.79824219 1.1725 -0.40507813 0.595 0 0 Z " fill="#C0C0C0" transform="translate(86,114)"/>
</svg>
